%TF.GenerationSoftware,KiCad,Pcbnew,(6.0.2)*%
%TF.CreationDate,2022-05-27T23:56:07+02:00*%
%TF.ProjectId,EEC_v0,4545435f-7630-42e6-9b69-6361645f7063,rev?*%
%TF.SameCoordinates,Original*%
%TF.FileFunction,Legend,Bot*%
%TF.FilePolarity,Positive*%
%FSLAX46Y46*%
G04 Gerber Fmt 4.6, Leading zero omitted, Abs format (unit mm)*
G04 Created by KiCad (PCBNEW (6.0.2)) date 2022-05-27 23:56:07*
%MOMM*%
%LPD*%
G01*
G04 APERTURE LIST*
%ADD10C,0.300000*%
%ADD11C,0.150000*%
%ADD12C,0.120000*%
G04 APERTURE END LIST*
D10*
X100285714Y-109647142D02*
X99619047Y-109647142D01*
X99333333Y-110694761D02*
X100285714Y-110694761D01*
X100285714Y-108694761D01*
X99333333Y-108694761D01*
X98476190Y-109647142D02*
X97809523Y-109647142D01*
X97523809Y-110694761D02*
X98476190Y-110694761D01*
X98476190Y-108694761D01*
X97523809Y-108694761D01*
X95523809Y-110504285D02*
X95619047Y-110599523D01*
X95904761Y-110694761D01*
X96095238Y-110694761D01*
X96380952Y-110599523D01*
X96571428Y-110409047D01*
X96666666Y-110218571D01*
X96761904Y-109837619D01*
X96761904Y-109551904D01*
X96666666Y-109170952D01*
X96571428Y-108980476D01*
X96380952Y-108790000D01*
X96095238Y-108694761D01*
X95904761Y-108694761D01*
X95619047Y-108790000D01*
X95523809Y-108885238D01*
X93809523Y-109361428D02*
X93809523Y-110694761D01*
X94666666Y-109361428D02*
X94666666Y-110409047D01*
X94571428Y-110599523D01*
X94380952Y-110694761D01*
X94095238Y-110694761D01*
X93904761Y-110599523D01*
X93809523Y-110504285D01*
X93142857Y-109361428D02*
X92380952Y-109361428D01*
X92857142Y-108694761D02*
X92857142Y-110409047D01*
X92761904Y-110599523D01*
X92571428Y-110694761D01*
X92380952Y-110694761D01*
X91714285Y-110694761D02*
X91714285Y-109361428D01*
X91714285Y-109742380D02*
X91619047Y-109551904D01*
X91523809Y-109456666D01*
X91333333Y-109361428D01*
X91142857Y-109361428D01*
X89714285Y-110599523D02*
X89904761Y-110694761D01*
X90285714Y-110694761D01*
X90476190Y-110599523D01*
X90571428Y-110409047D01*
X90571428Y-109647142D01*
X90476190Y-109456666D01*
X90285714Y-109361428D01*
X89904761Y-109361428D01*
X89714285Y-109456666D01*
X89619047Y-109647142D01*
X89619047Y-109837619D01*
X90571428Y-110028095D01*
X97857142Y-112581428D02*
X97380952Y-113914761D01*
X96904761Y-112581428D01*
X95761904Y-111914761D02*
X95571428Y-111914761D01*
X95380952Y-112010000D01*
X95285714Y-112105238D01*
X95190476Y-112295714D01*
X95095238Y-112676666D01*
X95095238Y-113152857D01*
X95190476Y-113533809D01*
X95285714Y-113724285D01*
X95380952Y-113819523D01*
X95571428Y-113914761D01*
X95761904Y-113914761D01*
X95952380Y-113819523D01*
X96047619Y-113724285D01*
X96142857Y-113533809D01*
X96238095Y-113152857D01*
X96238095Y-112676666D01*
X96142857Y-112295714D01*
X96047619Y-112105238D01*
X95952380Y-112010000D01*
X95761904Y-111914761D01*
X94238095Y-113724285D02*
X94142857Y-113819523D01*
X94238095Y-113914761D01*
X94333333Y-113819523D01*
X94238095Y-113724285D01*
X94238095Y-113914761D01*
X92238095Y-113914761D02*
X93380952Y-113914761D01*
X92809523Y-113914761D02*
X92809523Y-111914761D01*
X93000000Y-112200476D01*
X93190476Y-112390952D01*
X93380952Y-112486190D01*
D11*
X100128571Y-117247380D02*
X100128571Y-116247380D01*
X99747619Y-116247380D01*
X99652380Y-116295000D01*
X99604761Y-116342619D01*
X99557142Y-116437857D01*
X99557142Y-116580714D01*
X99604761Y-116675952D01*
X99652380Y-116723571D01*
X99747619Y-116771190D01*
X100128571Y-116771190D01*
X98700000Y-117247380D02*
X98700000Y-116723571D01*
X98747619Y-116628333D01*
X98842857Y-116580714D01*
X99033333Y-116580714D01*
X99128571Y-116628333D01*
X98700000Y-117199761D02*
X98795238Y-117247380D01*
X99033333Y-117247380D01*
X99128571Y-117199761D01*
X99176190Y-117104523D01*
X99176190Y-117009285D01*
X99128571Y-116914047D01*
X99033333Y-116866428D01*
X98795238Y-116866428D01*
X98700000Y-116818809D01*
X98223809Y-117247380D02*
X98223809Y-116247380D01*
X98223809Y-116628333D02*
X98128571Y-116580714D01*
X97938095Y-116580714D01*
X97842857Y-116628333D01*
X97795238Y-116675952D01*
X97747619Y-116771190D01*
X97747619Y-117056904D01*
X97795238Y-117152142D01*
X97842857Y-117199761D01*
X97938095Y-117247380D01*
X98128571Y-117247380D01*
X98223809Y-117199761D01*
X97176190Y-117247380D02*
X97271428Y-117199761D01*
X97319047Y-117104523D01*
X97319047Y-116247380D01*
X96652380Y-117247380D02*
X96747619Y-117199761D01*
X96795238Y-117152142D01*
X96842857Y-117056904D01*
X96842857Y-116771190D01*
X96795238Y-116675952D01*
X96747619Y-116628333D01*
X96652380Y-116580714D01*
X96509523Y-116580714D01*
X96414285Y-116628333D01*
X96366666Y-116675952D01*
X96319047Y-116771190D01*
X96319047Y-117056904D01*
X96366666Y-117152142D01*
X96414285Y-117199761D01*
X96509523Y-117247380D01*
X96652380Y-117247380D01*
X95176190Y-116961666D02*
X94700000Y-116961666D01*
X95271428Y-117247380D02*
X94938095Y-116247380D01*
X94604761Y-117247380D01*
X94842857Y-115866428D02*
X94985714Y-116009285D01*
X94128571Y-117247380D02*
X94223809Y-117199761D01*
X94271428Y-117104523D01*
X94271428Y-116247380D01*
X93842857Y-116580714D02*
X93604761Y-117247380D01*
X93366666Y-116580714D01*
X92557142Y-117247380D02*
X92557142Y-116723571D01*
X92604761Y-116628333D01*
X92700000Y-116580714D01*
X92890476Y-116580714D01*
X92985714Y-116628333D01*
X92557142Y-117199761D02*
X92652380Y-117247380D01*
X92890476Y-117247380D01*
X92985714Y-117199761D01*
X93033333Y-117104523D01*
X93033333Y-117009285D01*
X92985714Y-116914047D01*
X92890476Y-116866428D01*
X92652380Y-116866428D01*
X92557142Y-116818809D01*
X92080952Y-117247380D02*
X92080952Y-116580714D01*
X92080952Y-116771190D02*
X92033333Y-116675952D01*
X91985714Y-116628333D01*
X91890476Y-116580714D01*
X91795238Y-116580714D01*
X91080952Y-117199761D02*
X91176190Y-117247380D01*
X91366666Y-117247380D01*
X91461904Y-117199761D01*
X91509523Y-117104523D01*
X91509523Y-116723571D01*
X91461904Y-116628333D01*
X91366666Y-116580714D01*
X91176190Y-116580714D01*
X91080952Y-116628333D01*
X91033333Y-116723571D01*
X91033333Y-116818809D01*
X91509523Y-116914047D01*
X90700000Y-116580714D02*
X90176190Y-116580714D01*
X90700000Y-117247380D01*
X90176190Y-117247380D01*
X98152380Y-117857380D02*
X98057142Y-117857380D01*
X97961904Y-117905000D01*
X97914285Y-117952619D01*
X97866666Y-118047857D01*
X97819047Y-118238333D01*
X97819047Y-118476428D01*
X97866666Y-118666904D01*
X97914285Y-118762142D01*
X97961904Y-118809761D01*
X98057142Y-118857380D01*
X98152380Y-118857380D01*
X98247619Y-118809761D01*
X98295238Y-118762142D01*
X98342857Y-118666904D01*
X98390476Y-118476428D01*
X98390476Y-118238333D01*
X98342857Y-118047857D01*
X98295238Y-117952619D01*
X98247619Y-117905000D01*
X98152380Y-117857380D01*
X96914285Y-117857380D02*
X97390476Y-117857380D01*
X97438095Y-118333571D01*
X97390476Y-118285952D01*
X97295238Y-118238333D01*
X97057142Y-118238333D01*
X96961904Y-118285952D01*
X96914285Y-118333571D01*
X96866666Y-118428809D01*
X96866666Y-118666904D01*
X96914285Y-118762142D01*
X96961904Y-118809761D01*
X97057142Y-118857380D01*
X97295238Y-118857380D01*
X97390476Y-118809761D01*
X97438095Y-118762142D01*
X95723809Y-117809761D02*
X96580952Y-119095476D01*
X95438095Y-117952619D02*
X95390476Y-117905000D01*
X95295238Y-117857380D01*
X95057142Y-117857380D01*
X94961904Y-117905000D01*
X94914285Y-117952619D01*
X94866666Y-118047857D01*
X94866666Y-118143095D01*
X94914285Y-118285952D01*
X95485714Y-118857380D01*
X94866666Y-118857380D01*
X94247619Y-117857380D02*
X94152380Y-117857380D01*
X94057142Y-117905000D01*
X94009523Y-117952619D01*
X93961904Y-118047857D01*
X93914285Y-118238333D01*
X93914285Y-118476428D01*
X93961904Y-118666904D01*
X94009523Y-118762142D01*
X94057142Y-118809761D01*
X94152380Y-118857380D01*
X94247619Y-118857380D01*
X94342857Y-118809761D01*
X94390476Y-118762142D01*
X94438095Y-118666904D01*
X94485714Y-118476428D01*
X94485714Y-118238333D01*
X94438095Y-118047857D01*
X94390476Y-117952619D01*
X94342857Y-117905000D01*
X94247619Y-117857380D01*
X93533333Y-117952619D02*
X93485714Y-117905000D01*
X93390476Y-117857380D01*
X93152380Y-117857380D01*
X93057142Y-117905000D01*
X93009523Y-117952619D01*
X92961904Y-118047857D01*
X92961904Y-118143095D01*
X93009523Y-118285952D01*
X93580952Y-118857380D01*
X92961904Y-118857380D01*
X92580952Y-117952619D02*
X92533333Y-117905000D01*
X92438095Y-117857380D01*
X92200000Y-117857380D01*
X92104761Y-117905000D01*
X92057142Y-117952619D01*
X92009523Y-118047857D01*
X92009523Y-118143095D01*
X92057142Y-118285952D01*
X92628571Y-118857380D01*
X92009523Y-118857380D01*
%TO.C,Salida*%
X130904761Y-103357142D02*
X130952380Y-103500000D01*
X130952380Y-103738095D01*
X130904761Y-103833333D01*
X130857142Y-103880952D01*
X130761904Y-103928571D01*
X130666666Y-103928571D01*
X130571428Y-103880952D01*
X130523809Y-103833333D01*
X130476190Y-103738095D01*
X130428571Y-103547619D01*
X130380952Y-103452380D01*
X130333333Y-103404761D01*
X130238095Y-103357142D01*
X130142857Y-103357142D01*
X130047619Y-103404761D01*
X130000000Y-103452380D01*
X129952380Y-103547619D01*
X129952380Y-103785714D01*
X130000000Y-103928571D01*
X130952380Y-104785714D02*
X130428571Y-104785714D01*
X130333333Y-104738095D01*
X130285714Y-104642857D01*
X130285714Y-104452380D01*
X130333333Y-104357142D01*
X130904761Y-104785714D02*
X130952380Y-104690476D01*
X130952380Y-104452380D01*
X130904761Y-104357142D01*
X130809523Y-104309523D01*
X130714285Y-104309523D01*
X130619047Y-104357142D01*
X130571428Y-104452380D01*
X130571428Y-104690476D01*
X130523809Y-104785714D01*
X130952380Y-105404761D02*
X130904761Y-105309523D01*
X130809523Y-105261904D01*
X129952380Y-105261904D01*
X130952380Y-105785714D02*
X130285714Y-105785714D01*
X129952380Y-105785714D02*
X130000000Y-105738095D01*
X130047619Y-105785714D01*
X130000000Y-105833333D01*
X129952380Y-105785714D01*
X130047619Y-105785714D01*
X130952380Y-106690476D02*
X129952380Y-106690476D01*
X130904761Y-106690476D02*
X130952380Y-106595238D01*
X130952380Y-106404761D01*
X130904761Y-106309523D01*
X130857142Y-106261904D01*
X130761904Y-106214285D01*
X130476190Y-106214285D01*
X130380952Y-106261904D01*
X130333333Y-106309523D01*
X130285714Y-106404761D01*
X130285714Y-106595238D01*
X130333333Y-106690476D01*
X130952380Y-107595238D02*
X130428571Y-107595238D01*
X130333333Y-107547619D01*
X130285714Y-107452380D01*
X130285714Y-107261904D01*
X130333333Y-107166666D01*
X130904761Y-107595238D02*
X130952380Y-107500000D01*
X130952380Y-107261904D01*
X130904761Y-107166666D01*
X130809523Y-107119047D01*
X130714285Y-107119047D01*
X130619047Y-107166666D01*
X130571428Y-107261904D01*
X130571428Y-107500000D01*
X130523809Y-107595238D01*
D12*
X123800000Y-107900000D02*
X114900000Y-107900000D01*
X129600000Y-114100000D02*
X129600000Y-113600000D01*
X129600000Y-108400000D02*
X129600000Y-107900000D01*
X128400000Y-114100000D02*
X129600000Y-114100000D01*
X114900000Y-107900000D02*
X114900000Y-114100000D01*
X129600000Y-107900000D02*
X126400000Y-107900000D01*
X125800000Y-114100000D02*
X125800000Y-116100000D01*
X132100000Y-108400000D02*
X129600000Y-108400000D01*
X132100000Y-113600000D02*
X132100000Y-108400000D01*
X119300000Y-114100000D02*
X125800000Y-114100000D01*
X114900000Y-114100000D02*
X116100000Y-114100000D01*
X128400000Y-114100000D02*
X128400000Y-116100000D01*
X129600000Y-113600000D02*
X132100000Y-113600000D01*
%TD*%
M02*
