%TF.GenerationSoftware,KiCad,Pcbnew,(6.0.2)*%
%TF.CreationDate,2022-05-27T23:56:07+02:00*%
%TF.ProjectId,EEC_v0,4545435f-7630-42e6-9b69-6361645f7063,rev?*%
%TF.SameCoordinates,Original*%
%TF.FileFunction,Legend,Top*%
%TF.FilePolarity,Positive*%
%FSLAX46Y46*%
G04 Gerber Fmt 4.6, Leading zero omitted, Abs format (unit mm)*
G04 Created by KiCad (PCBNEW (6.0.2)) date 2022-05-27 23:56:07*
%MOMM*%
%LPD*%
G01*
G04 APERTURE LIST*
%ADD10C,0.150000*%
%ADD11C,0.120000*%
G04 APERTURE END LIST*
D10*
%TO.C,C14*%
X95716562Y-120857142D02*
X95668943Y-120904761D01*
X95526086Y-120952380D01*
X95430848Y-120952380D01*
X95287991Y-120904761D01*
X95192753Y-120809523D01*
X95145134Y-120714285D01*
X95097515Y-120523809D01*
X95097515Y-120380952D01*
X95145134Y-120190476D01*
X95192753Y-120095238D01*
X95287991Y-120000000D01*
X95430848Y-119952380D01*
X95526086Y-119952380D01*
X95668943Y-120000000D01*
X95716562Y-120047619D01*
X96668943Y-120952380D02*
X96097515Y-120952380D01*
X96383229Y-120952380D02*
X96383229Y-119952380D01*
X96287991Y-120095238D01*
X96192753Y-120190476D01*
X96097515Y-120238095D01*
X97526086Y-120285714D02*
X97526086Y-120952380D01*
X97287991Y-119904761D02*
X97049896Y-120619047D01*
X97668943Y-120619047D01*
%TO.C,C12*%
X117157142Y-120642857D02*
X117204761Y-120690476D01*
X117252380Y-120833333D01*
X117252380Y-120928571D01*
X117204761Y-121071428D01*
X117109523Y-121166666D01*
X117014285Y-121214285D01*
X116823809Y-121261904D01*
X116680952Y-121261904D01*
X116490476Y-121214285D01*
X116395238Y-121166666D01*
X116300000Y-121071428D01*
X116252380Y-120928571D01*
X116252380Y-120833333D01*
X116300000Y-120690476D01*
X116347619Y-120642857D01*
X117252380Y-119690476D02*
X117252380Y-120261904D01*
X117252380Y-119976190D02*
X116252380Y-119976190D01*
X116395238Y-120071428D01*
X116490476Y-120166666D01*
X116538095Y-120261904D01*
X116347619Y-119309523D02*
X116300000Y-119261904D01*
X116252380Y-119166666D01*
X116252380Y-118928571D01*
X116300000Y-118833333D01*
X116347619Y-118785714D01*
X116442857Y-118738095D01*
X116538095Y-118738095D01*
X116680952Y-118785714D01*
X117252380Y-119357142D01*
X117252380Y-118738095D01*
%TO.C,C4*%
X117333333Y-116427142D02*
X117285714Y-116474761D01*
X117142857Y-116522380D01*
X117047619Y-116522380D01*
X116904761Y-116474761D01*
X116809523Y-116379523D01*
X116761904Y-116284285D01*
X116714285Y-116093809D01*
X116714285Y-115950952D01*
X116761904Y-115760476D01*
X116809523Y-115665238D01*
X116904761Y-115570000D01*
X117047619Y-115522380D01*
X117142857Y-115522380D01*
X117285714Y-115570000D01*
X117333333Y-115617619D01*
X118190476Y-115855714D02*
X118190476Y-116522380D01*
X117952380Y-115474761D02*
X117714285Y-116189047D01*
X118333333Y-116189047D01*
%TO.C,C6*%
X117202142Y-108166666D02*
X117249761Y-108214285D01*
X117297380Y-108357142D01*
X117297380Y-108452380D01*
X117249761Y-108595238D01*
X117154523Y-108690476D01*
X117059285Y-108738095D01*
X116868809Y-108785714D01*
X116725952Y-108785714D01*
X116535476Y-108738095D01*
X116440238Y-108690476D01*
X116345000Y-108595238D01*
X116297380Y-108452380D01*
X116297380Y-108357142D01*
X116345000Y-108214285D01*
X116392619Y-108166666D01*
X116297380Y-107309523D02*
X116297380Y-107500000D01*
X116345000Y-107595238D01*
X116392619Y-107642857D01*
X116535476Y-107738095D01*
X116725952Y-107785714D01*
X117106904Y-107785714D01*
X117202142Y-107738095D01*
X117249761Y-107690476D01*
X117297380Y-107595238D01*
X117297380Y-107404761D01*
X117249761Y-107309523D01*
X117202142Y-107261904D01*
X117106904Y-107214285D01*
X116868809Y-107214285D01*
X116773571Y-107261904D01*
X116725952Y-107309523D01*
X116678333Y-107404761D01*
X116678333Y-107595238D01*
X116725952Y-107690476D01*
X116773571Y-107738095D01*
X116868809Y-107785714D01*
%TO.C,R9*%
X119233333Y-113452380D02*
X118900000Y-112976190D01*
X118661904Y-113452380D02*
X118661904Y-112452380D01*
X119042857Y-112452380D01*
X119138095Y-112500000D01*
X119185714Y-112547619D01*
X119233333Y-112642857D01*
X119233333Y-112785714D01*
X119185714Y-112880952D01*
X119138095Y-112928571D01*
X119042857Y-112976190D01*
X118661904Y-112976190D01*
X119709523Y-113452380D02*
X119900000Y-113452380D01*
X119995238Y-113404761D01*
X120042857Y-113357142D01*
X120138095Y-113214285D01*
X120185714Y-113023809D01*
X120185714Y-112642857D01*
X120138095Y-112547619D01*
X120090476Y-112500000D01*
X119995238Y-112452380D01*
X119804761Y-112452380D01*
X119709523Y-112500000D01*
X119661904Y-112547619D01*
X119614285Y-112642857D01*
X119614285Y-112880952D01*
X119661904Y-112976190D01*
X119709523Y-113023809D01*
X119804761Y-113071428D01*
X119995238Y-113071428D01*
X120090476Y-113023809D01*
X120138095Y-112976190D01*
X120185714Y-112880952D01*
%TO.C,R8*%
X116833333Y-112452380D02*
X116500000Y-111976190D01*
X116261904Y-112452380D02*
X116261904Y-111452380D01*
X116642857Y-111452380D01*
X116738095Y-111500000D01*
X116785714Y-111547619D01*
X116833333Y-111642857D01*
X116833333Y-111785714D01*
X116785714Y-111880952D01*
X116738095Y-111928571D01*
X116642857Y-111976190D01*
X116261904Y-111976190D01*
X117404761Y-111880952D02*
X117309523Y-111833333D01*
X117261904Y-111785714D01*
X117214285Y-111690476D01*
X117214285Y-111642857D01*
X117261904Y-111547619D01*
X117309523Y-111500000D01*
X117404761Y-111452380D01*
X117595238Y-111452380D01*
X117690476Y-111500000D01*
X117738095Y-111547619D01*
X117785714Y-111642857D01*
X117785714Y-111690476D01*
X117738095Y-111785714D01*
X117690476Y-111833333D01*
X117595238Y-111880952D01*
X117404761Y-111880952D01*
X117309523Y-111928571D01*
X117261904Y-111976190D01*
X117214285Y-112071428D01*
X117214285Y-112261904D01*
X117261904Y-112357142D01*
X117309523Y-112404761D01*
X117404761Y-112452380D01*
X117595238Y-112452380D01*
X117690476Y-112404761D01*
X117738095Y-112357142D01*
X117785714Y-112261904D01*
X117785714Y-112071428D01*
X117738095Y-111976190D01*
X117690476Y-111928571D01*
X117595238Y-111880952D01*
%TO.C,R1*%
X86658333Y-116422380D02*
X86325000Y-115946190D01*
X86086904Y-116422380D02*
X86086904Y-115422380D01*
X86467857Y-115422380D01*
X86563095Y-115470000D01*
X86610714Y-115517619D01*
X86658333Y-115612857D01*
X86658333Y-115755714D01*
X86610714Y-115850952D01*
X86563095Y-115898571D01*
X86467857Y-115946190D01*
X86086904Y-115946190D01*
X87610714Y-116422380D02*
X87039285Y-116422380D01*
X87325000Y-116422380D02*
X87325000Y-115422380D01*
X87229761Y-115565238D01*
X87134523Y-115660476D01*
X87039285Y-115708095D01*
%TO.C,J3*%
X81252380Y-106933333D02*
X81966666Y-106933333D01*
X82109523Y-106980952D01*
X82204761Y-107076190D01*
X82252380Y-107219047D01*
X82252380Y-107314285D01*
X81252380Y-106552380D02*
X81252380Y-105933333D01*
X81633333Y-106266666D01*
X81633333Y-106123809D01*
X81680952Y-106028571D01*
X81728571Y-105980952D01*
X81823809Y-105933333D01*
X82061904Y-105933333D01*
X82157142Y-105980952D01*
X82204761Y-106028571D01*
X82252380Y-106123809D01*
X82252380Y-106409523D01*
X82204761Y-106504761D01*
X82157142Y-106552380D01*
%TO.C,C10*%
X102991562Y-107857142D02*
X102943943Y-107904761D01*
X102801086Y-107952380D01*
X102705848Y-107952380D01*
X102562991Y-107904761D01*
X102467753Y-107809523D01*
X102420134Y-107714285D01*
X102372515Y-107523809D01*
X102372515Y-107380952D01*
X102420134Y-107190476D01*
X102467753Y-107095238D01*
X102562991Y-107000000D01*
X102705848Y-106952380D01*
X102801086Y-106952380D01*
X102943943Y-107000000D01*
X102991562Y-107047619D01*
X103943943Y-107952380D02*
X103372515Y-107952380D01*
X103658229Y-107952380D02*
X103658229Y-106952380D01*
X103562991Y-107095238D01*
X103467753Y-107190476D01*
X103372515Y-107238095D01*
X104562991Y-106952380D02*
X104658229Y-106952380D01*
X104753467Y-107000000D01*
X104801086Y-107047619D01*
X104848705Y-107142857D01*
X104896324Y-107333333D01*
X104896324Y-107571428D01*
X104848705Y-107761904D01*
X104801086Y-107857142D01*
X104753467Y-107904761D01*
X104658229Y-107952380D01*
X104562991Y-107952380D01*
X104467753Y-107904761D01*
X104420134Y-107857142D01*
X104372515Y-107761904D01*
X104324896Y-107571428D01*
X104324896Y-107333333D01*
X104372515Y-107142857D01*
X104420134Y-107047619D01*
X104467753Y-107000000D01*
X104562991Y-106952380D01*
%TO.C,U2*%
X98738095Y-106452380D02*
X98738095Y-107261904D01*
X98785714Y-107357142D01*
X98833333Y-107404761D01*
X98928571Y-107452380D01*
X99119047Y-107452380D01*
X99214285Y-107404761D01*
X99261904Y-107357142D01*
X99309523Y-107261904D01*
X99309523Y-106452380D01*
X99738095Y-106547619D02*
X99785714Y-106500000D01*
X99880952Y-106452380D01*
X100119047Y-106452380D01*
X100214285Y-106500000D01*
X100261904Y-106547619D01*
X100309523Y-106642857D01*
X100309523Y-106738095D01*
X100261904Y-106880952D01*
X99690476Y-107452380D01*
X100309523Y-107452380D01*
%TO.C,C16*%
X119927142Y-108642857D02*
X119974761Y-108690476D01*
X120022380Y-108833333D01*
X120022380Y-108928571D01*
X119974761Y-109071428D01*
X119879523Y-109166666D01*
X119784285Y-109214285D01*
X119593809Y-109261904D01*
X119450952Y-109261904D01*
X119260476Y-109214285D01*
X119165238Y-109166666D01*
X119070000Y-109071428D01*
X119022380Y-108928571D01*
X119022380Y-108833333D01*
X119070000Y-108690476D01*
X119117619Y-108642857D01*
X120022380Y-107690476D02*
X120022380Y-108261904D01*
X120022380Y-107976190D02*
X119022380Y-107976190D01*
X119165238Y-108071428D01*
X119260476Y-108166666D01*
X119308095Y-108261904D01*
X119022380Y-106833333D02*
X119022380Y-107023809D01*
X119070000Y-107119047D01*
X119117619Y-107166666D01*
X119260476Y-107261904D01*
X119450952Y-107309523D01*
X119831904Y-107309523D01*
X119927142Y-107261904D01*
X119974761Y-107214285D01*
X120022380Y-107119047D01*
X120022380Y-106928571D01*
X119974761Y-106833333D01*
X119927142Y-106785714D01*
X119831904Y-106738095D01*
X119593809Y-106738095D01*
X119498571Y-106785714D01*
X119450952Y-106833333D01*
X119403333Y-106928571D01*
X119403333Y-107119047D01*
X119450952Y-107214285D01*
X119498571Y-107261904D01*
X119593809Y-107309523D01*
%TO.C,R6*%
X102833333Y-114522380D02*
X102500000Y-114046190D01*
X102261904Y-114522380D02*
X102261904Y-113522380D01*
X102642857Y-113522380D01*
X102738095Y-113570000D01*
X102785714Y-113617619D01*
X102833333Y-113712857D01*
X102833333Y-113855714D01*
X102785714Y-113950952D01*
X102738095Y-113998571D01*
X102642857Y-114046190D01*
X102261904Y-114046190D01*
X103690476Y-113522380D02*
X103500000Y-113522380D01*
X103404761Y-113570000D01*
X103357142Y-113617619D01*
X103261904Y-113760476D01*
X103214285Y-113950952D01*
X103214285Y-114331904D01*
X103261904Y-114427142D01*
X103309523Y-114474761D01*
X103404761Y-114522380D01*
X103595238Y-114522380D01*
X103690476Y-114474761D01*
X103738095Y-114427142D01*
X103785714Y-114331904D01*
X103785714Y-114093809D01*
X103738095Y-113998571D01*
X103690476Y-113950952D01*
X103595238Y-113903333D01*
X103404761Y-113903333D01*
X103309523Y-113950952D01*
X103261904Y-113998571D01*
X103214285Y-114093809D01*
%TO.C,R5*%
X102833333Y-111522380D02*
X102500000Y-111046190D01*
X102261904Y-111522380D02*
X102261904Y-110522380D01*
X102642857Y-110522380D01*
X102738095Y-110570000D01*
X102785714Y-110617619D01*
X102833333Y-110712857D01*
X102833333Y-110855714D01*
X102785714Y-110950952D01*
X102738095Y-110998571D01*
X102642857Y-111046190D01*
X102261904Y-111046190D01*
X103738095Y-110522380D02*
X103261904Y-110522380D01*
X103214285Y-110998571D01*
X103261904Y-110950952D01*
X103357142Y-110903333D01*
X103595238Y-110903333D01*
X103690476Y-110950952D01*
X103738095Y-110998571D01*
X103785714Y-111093809D01*
X103785714Y-111331904D01*
X103738095Y-111427142D01*
X103690476Y-111474761D01*
X103595238Y-111522380D01*
X103357142Y-111522380D01*
X103261904Y-111474761D01*
X103214285Y-111427142D01*
%TO.C,C13*%
X102357142Y-104927142D02*
X102309523Y-104974761D01*
X102166666Y-105022380D01*
X102071428Y-105022380D01*
X101928571Y-104974761D01*
X101833333Y-104879523D01*
X101785714Y-104784285D01*
X101738095Y-104593809D01*
X101738095Y-104450952D01*
X101785714Y-104260476D01*
X101833333Y-104165238D01*
X101928571Y-104070000D01*
X102071428Y-104022380D01*
X102166666Y-104022380D01*
X102309523Y-104070000D01*
X102357142Y-104117619D01*
X103309523Y-105022380D02*
X102738095Y-105022380D01*
X103023809Y-105022380D02*
X103023809Y-104022380D01*
X102928571Y-104165238D01*
X102833333Y-104260476D01*
X102738095Y-104308095D01*
X103642857Y-104022380D02*
X104261904Y-104022380D01*
X103928571Y-104403333D01*
X104071428Y-104403333D01*
X104166666Y-104450952D01*
X104214285Y-104498571D01*
X104261904Y-104593809D01*
X104261904Y-104831904D01*
X104214285Y-104927142D01*
X104166666Y-104974761D01*
X104071428Y-105022380D01*
X103785714Y-105022380D01*
X103690476Y-104974761D01*
X103642857Y-104927142D01*
%TO.C,Entrada*%
X84528571Y-113819047D02*
X84528571Y-113485714D01*
X85052380Y-113342857D02*
X85052380Y-113819047D01*
X84052380Y-113819047D01*
X84052380Y-113342857D01*
X84385714Y-112914285D02*
X85052380Y-112914285D01*
X84480952Y-112914285D02*
X84433333Y-112866666D01*
X84385714Y-112771428D01*
X84385714Y-112628571D01*
X84433333Y-112533333D01*
X84528571Y-112485714D01*
X85052380Y-112485714D01*
X84385714Y-112152380D02*
X84385714Y-111771428D01*
X84052380Y-112009523D02*
X84909523Y-112009523D01*
X85004761Y-111961904D01*
X85052380Y-111866666D01*
X85052380Y-111771428D01*
X85052380Y-111438095D02*
X84385714Y-111438095D01*
X84576190Y-111438095D02*
X84480952Y-111390476D01*
X84433333Y-111342857D01*
X84385714Y-111247619D01*
X84385714Y-111152380D01*
X85052380Y-110390476D02*
X84528571Y-110390476D01*
X84433333Y-110438095D01*
X84385714Y-110533333D01*
X84385714Y-110723809D01*
X84433333Y-110819047D01*
X85004761Y-110390476D02*
X85052380Y-110485714D01*
X85052380Y-110723809D01*
X85004761Y-110819047D01*
X84909523Y-110866666D01*
X84814285Y-110866666D01*
X84719047Y-110819047D01*
X84671428Y-110723809D01*
X84671428Y-110485714D01*
X84623809Y-110390476D01*
X85052380Y-109485714D02*
X84052380Y-109485714D01*
X85004761Y-109485714D02*
X85052380Y-109580952D01*
X85052380Y-109771428D01*
X85004761Y-109866666D01*
X84957142Y-109914285D01*
X84861904Y-109961904D01*
X84576190Y-109961904D01*
X84480952Y-109914285D01*
X84433333Y-109866666D01*
X84385714Y-109771428D01*
X84385714Y-109580952D01*
X84433333Y-109485714D01*
X85052380Y-108580952D02*
X84528571Y-108580952D01*
X84433333Y-108628571D01*
X84385714Y-108723809D01*
X84385714Y-108914285D01*
X84433333Y-109009523D01*
X85004761Y-108580952D02*
X85052380Y-108676190D01*
X85052380Y-108914285D01*
X85004761Y-109009523D01*
X84909523Y-109057142D01*
X84814285Y-109057142D01*
X84719047Y-109009523D01*
X84671428Y-108914285D01*
X84671428Y-108676190D01*
X84623809Y-108580952D01*
%TO.C,C15*%
X122652142Y-108417857D02*
X122699761Y-108465476D01*
X122747380Y-108608333D01*
X122747380Y-108703571D01*
X122699761Y-108846428D01*
X122604523Y-108941666D01*
X122509285Y-108989285D01*
X122318809Y-109036904D01*
X122175952Y-109036904D01*
X121985476Y-108989285D01*
X121890238Y-108941666D01*
X121795000Y-108846428D01*
X121747380Y-108703571D01*
X121747380Y-108608333D01*
X121795000Y-108465476D01*
X121842619Y-108417857D01*
X122747380Y-107465476D02*
X122747380Y-108036904D01*
X122747380Y-107751190D02*
X121747380Y-107751190D01*
X121890238Y-107846428D01*
X121985476Y-107941666D01*
X122033095Y-108036904D01*
X121747380Y-106560714D02*
X121747380Y-107036904D01*
X122223571Y-107084523D01*
X122175952Y-107036904D01*
X122128333Y-106941666D01*
X122128333Y-106703571D01*
X122175952Y-106608333D01*
X122223571Y-106560714D01*
X122318809Y-106513095D01*
X122556904Y-106513095D01*
X122652142Y-106560714D01*
X122699761Y-106608333D01*
X122747380Y-106703571D01*
X122747380Y-106941666D01*
X122699761Y-107036904D01*
X122652142Y-107084523D01*
%TO.C,J5*%
X105847380Y-106333333D02*
X106561666Y-106333333D01*
X106704523Y-106380952D01*
X106799761Y-106476190D01*
X106847380Y-106619047D01*
X106847380Y-106714285D01*
X105847380Y-105380952D02*
X105847380Y-105857142D01*
X106323571Y-105904761D01*
X106275952Y-105857142D01*
X106228333Y-105761904D01*
X106228333Y-105523809D01*
X106275952Y-105428571D01*
X106323571Y-105380952D01*
X106418809Y-105333333D01*
X106656904Y-105333333D01*
X106752142Y-105380952D01*
X106799761Y-105428571D01*
X106847380Y-105523809D01*
X106847380Y-105761904D01*
X106799761Y-105857142D01*
X106752142Y-105904761D01*
%TO.C,C2*%
X111558333Y-108857142D02*
X111510714Y-108904761D01*
X111367857Y-108952380D01*
X111272619Y-108952380D01*
X111129761Y-108904761D01*
X111034523Y-108809523D01*
X110986904Y-108714285D01*
X110939285Y-108523809D01*
X110939285Y-108380952D01*
X110986904Y-108190476D01*
X111034523Y-108095238D01*
X111129761Y-108000000D01*
X111272619Y-107952380D01*
X111367857Y-107952380D01*
X111510714Y-108000000D01*
X111558333Y-108047619D01*
X111939285Y-108047619D02*
X111986904Y-108000000D01*
X112082142Y-107952380D01*
X112320238Y-107952380D01*
X112415476Y-108000000D01*
X112463095Y-108047619D01*
X112510714Y-108142857D01*
X112510714Y-108238095D01*
X112463095Y-108380952D01*
X111891666Y-108952380D01*
X112510714Y-108952380D01*
%TO.C,R3*%
X89333333Y-107952380D02*
X89000000Y-107476190D01*
X88761904Y-107952380D02*
X88761904Y-106952380D01*
X89142857Y-106952380D01*
X89238095Y-107000000D01*
X89285714Y-107047619D01*
X89333333Y-107142857D01*
X89333333Y-107285714D01*
X89285714Y-107380952D01*
X89238095Y-107428571D01*
X89142857Y-107476190D01*
X88761904Y-107476190D01*
X89666666Y-106952380D02*
X90285714Y-106952380D01*
X89952380Y-107333333D01*
X90095238Y-107333333D01*
X90190476Y-107380952D01*
X90238095Y-107428571D01*
X90285714Y-107523809D01*
X90285714Y-107761904D01*
X90238095Y-107857142D01*
X90190476Y-107904761D01*
X90095238Y-107952380D01*
X89809523Y-107952380D01*
X89714285Y-107904761D01*
X89666666Y-107857142D01*
%TO.C,R7*%
X107833333Y-109022380D02*
X107500000Y-108546190D01*
X107261904Y-109022380D02*
X107261904Y-108022380D01*
X107642857Y-108022380D01*
X107738095Y-108070000D01*
X107785714Y-108117619D01*
X107833333Y-108212857D01*
X107833333Y-108355714D01*
X107785714Y-108450952D01*
X107738095Y-108498571D01*
X107642857Y-108546190D01*
X107261904Y-108546190D01*
X108166666Y-108022380D02*
X108833333Y-108022380D01*
X108404761Y-109022380D01*
%TO.C,R2*%
X86808333Y-107622380D02*
X86475000Y-107146190D01*
X86236904Y-107622380D02*
X86236904Y-106622380D01*
X86617857Y-106622380D01*
X86713095Y-106670000D01*
X86760714Y-106717619D01*
X86808333Y-106812857D01*
X86808333Y-106955714D01*
X86760714Y-107050952D01*
X86713095Y-107098571D01*
X86617857Y-107146190D01*
X86236904Y-107146190D01*
X87189285Y-106717619D02*
X87236904Y-106670000D01*
X87332142Y-106622380D01*
X87570238Y-106622380D01*
X87665476Y-106670000D01*
X87713095Y-106717619D01*
X87760714Y-106812857D01*
X87760714Y-106908095D01*
X87713095Y-107050952D01*
X87141666Y-107622380D01*
X87760714Y-107622380D01*
%TO.C,+/G/-*%
X87652380Y-104071428D02*
X88414285Y-104071428D01*
X88033333Y-104452380D02*
X88033333Y-103690476D01*
X89604761Y-103404761D02*
X88747619Y-104690476D01*
X90461904Y-103500000D02*
X90366666Y-103452380D01*
X90223809Y-103452380D01*
X90080952Y-103500000D01*
X89985714Y-103595238D01*
X89938095Y-103690476D01*
X89890476Y-103880952D01*
X89890476Y-104023809D01*
X89938095Y-104214285D01*
X89985714Y-104309523D01*
X90080952Y-104404761D01*
X90223809Y-104452380D01*
X90319047Y-104452380D01*
X90461904Y-104404761D01*
X90509523Y-104357142D01*
X90509523Y-104023809D01*
X90319047Y-104023809D01*
X91652380Y-103404761D02*
X90795238Y-104690476D01*
X91985714Y-104071428D02*
X92747619Y-104071428D01*
%TO.C,C3*%
X113927142Y-113166666D02*
X113974761Y-113214285D01*
X114022380Y-113357142D01*
X114022380Y-113452380D01*
X113974761Y-113595238D01*
X113879523Y-113690476D01*
X113784285Y-113738095D01*
X113593809Y-113785714D01*
X113450952Y-113785714D01*
X113260476Y-113738095D01*
X113165238Y-113690476D01*
X113070000Y-113595238D01*
X113022380Y-113452380D01*
X113022380Y-113357142D01*
X113070000Y-113214285D01*
X113117619Y-113166666D01*
X113022380Y-112833333D02*
X113022380Y-112214285D01*
X113403333Y-112547619D01*
X113403333Y-112404761D01*
X113450952Y-112309523D01*
X113498571Y-112261904D01*
X113593809Y-112214285D01*
X113831904Y-112214285D01*
X113927142Y-112261904D01*
X113974761Y-112309523D01*
X114022380Y-112404761D01*
X114022380Y-112690476D01*
X113974761Y-112785714D01*
X113927142Y-112833333D01*
%TO.C,RV1*%
X129404761Y-111302380D02*
X129071428Y-110826190D01*
X128833333Y-111302380D02*
X128833333Y-110302380D01*
X129214285Y-110302380D01*
X129309523Y-110350000D01*
X129357142Y-110397619D01*
X129404761Y-110492857D01*
X129404761Y-110635714D01*
X129357142Y-110730952D01*
X129309523Y-110778571D01*
X129214285Y-110826190D01*
X128833333Y-110826190D01*
X129690476Y-110302380D02*
X130023809Y-111302380D01*
X130357142Y-110302380D01*
X131214285Y-111302380D02*
X130642857Y-111302380D01*
X130928571Y-111302380D02*
X130928571Y-110302380D01*
X130833333Y-110445238D01*
X130738095Y-110540476D01*
X130642857Y-110588095D01*
%TO.C,R4*%
X106833333Y-120382380D02*
X106500000Y-119906190D01*
X106261904Y-120382380D02*
X106261904Y-119382380D01*
X106642857Y-119382380D01*
X106738095Y-119430000D01*
X106785714Y-119477619D01*
X106833333Y-119572857D01*
X106833333Y-119715714D01*
X106785714Y-119810952D01*
X106738095Y-119858571D01*
X106642857Y-119906190D01*
X106261904Y-119906190D01*
X107690476Y-119715714D02*
X107690476Y-120382380D01*
X107452380Y-119334761D02*
X107214285Y-120049047D01*
X107833333Y-120049047D01*
%TO.C,C9*%
X118757142Y-119766666D02*
X118804761Y-119814285D01*
X118852380Y-119957142D01*
X118852380Y-120052380D01*
X118804761Y-120195238D01*
X118709523Y-120290476D01*
X118614285Y-120338095D01*
X118423809Y-120385714D01*
X118280952Y-120385714D01*
X118090476Y-120338095D01*
X117995238Y-120290476D01*
X117900000Y-120195238D01*
X117852380Y-120052380D01*
X117852380Y-119957142D01*
X117900000Y-119814285D01*
X117947619Y-119766666D01*
X118852380Y-119290476D02*
X118852380Y-119100000D01*
X118804761Y-119004761D01*
X118757142Y-118957142D01*
X118614285Y-118861904D01*
X118423809Y-118814285D01*
X118042857Y-118814285D01*
X117947619Y-118861904D01*
X117900000Y-118909523D01*
X117852380Y-119004761D01*
X117852380Y-119195238D01*
X117900000Y-119290476D01*
X117947619Y-119338095D01*
X118042857Y-119385714D01*
X118280952Y-119385714D01*
X118376190Y-119338095D01*
X118423809Y-119290476D01*
X118471428Y-119195238D01*
X118471428Y-119004761D01*
X118423809Y-118909523D01*
X118376190Y-118861904D01*
X118280952Y-118814285D01*
%TO.C,J4*%
X87852380Y-119333333D02*
X88566666Y-119333333D01*
X88709523Y-119380952D01*
X88804761Y-119476190D01*
X88852380Y-119619047D01*
X88852380Y-119714285D01*
X88185714Y-118428571D02*
X88852380Y-118428571D01*
X87804761Y-118666666D02*
X88519047Y-118904761D01*
X88519047Y-118285714D01*
%TO.C,J8*%
X124952380Y-117833333D02*
X125666666Y-117833333D01*
X125809523Y-117880952D01*
X125904761Y-117976190D01*
X125952380Y-118119047D01*
X125952380Y-118214285D01*
X125380952Y-117214285D02*
X125333333Y-117309523D01*
X125285714Y-117357142D01*
X125190476Y-117404761D01*
X125142857Y-117404761D01*
X125047619Y-117357142D01*
X125000000Y-117309523D01*
X124952380Y-117214285D01*
X124952380Y-117023809D01*
X125000000Y-116928571D01*
X125047619Y-116880952D01*
X125142857Y-116833333D01*
X125190476Y-116833333D01*
X125285714Y-116880952D01*
X125333333Y-116928571D01*
X125380952Y-117023809D01*
X125380952Y-117214285D01*
X125428571Y-117309523D01*
X125476190Y-117357142D01*
X125571428Y-117404761D01*
X125761904Y-117404761D01*
X125857142Y-117357142D01*
X125904761Y-117309523D01*
X125952380Y-117214285D01*
X125952380Y-117023809D01*
X125904761Y-116928571D01*
X125857142Y-116880952D01*
X125761904Y-116833333D01*
X125571428Y-116833333D01*
X125476190Y-116880952D01*
X125428571Y-116928571D01*
X125380952Y-117023809D01*
%TO.C,R10*%
X126447142Y-107472380D02*
X126113809Y-106996190D01*
X125875714Y-107472380D02*
X125875714Y-106472380D01*
X126256666Y-106472380D01*
X126351904Y-106520000D01*
X126399523Y-106567619D01*
X126447142Y-106662857D01*
X126447142Y-106805714D01*
X126399523Y-106900952D01*
X126351904Y-106948571D01*
X126256666Y-106996190D01*
X125875714Y-106996190D01*
X127399523Y-107472380D02*
X126828095Y-107472380D01*
X127113809Y-107472380D02*
X127113809Y-106472380D01*
X127018571Y-106615238D01*
X126923333Y-106710476D01*
X126828095Y-106758095D01*
X128018571Y-106472380D02*
X128113809Y-106472380D01*
X128209047Y-106520000D01*
X128256666Y-106567619D01*
X128304285Y-106662857D01*
X128351904Y-106853333D01*
X128351904Y-107091428D01*
X128304285Y-107281904D01*
X128256666Y-107377142D01*
X128209047Y-107424761D01*
X128113809Y-107472380D01*
X128018571Y-107472380D01*
X127923333Y-107424761D01*
X127875714Y-107377142D01*
X127828095Y-107281904D01*
X127780476Y-107091428D01*
X127780476Y-106853333D01*
X127828095Y-106662857D01*
X127875714Y-106567619D01*
X127923333Y-106520000D01*
X128018571Y-106472380D01*
%TO.C,C1*%
X102833333Y-120287142D02*
X102785714Y-120334761D01*
X102642857Y-120382380D01*
X102547619Y-120382380D01*
X102404761Y-120334761D01*
X102309523Y-120239523D01*
X102261904Y-120144285D01*
X102214285Y-119953809D01*
X102214285Y-119810952D01*
X102261904Y-119620476D01*
X102309523Y-119525238D01*
X102404761Y-119430000D01*
X102547619Y-119382380D01*
X102642857Y-119382380D01*
X102785714Y-119430000D01*
X102833333Y-119477619D01*
X103785714Y-120382380D02*
X103214285Y-120382380D01*
X103500000Y-120382380D02*
X103500000Y-119382380D01*
X103404761Y-119525238D01*
X103309523Y-119620476D01*
X103214285Y-119668095D01*
%TO.C,U1*%
X107238095Y-115952380D02*
X107238095Y-116761904D01*
X107285714Y-116857142D01*
X107333333Y-116904761D01*
X107428571Y-116952380D01*
X107619047Y-116952380D01*
X107714285Y-116904761D01*
X107761904Y-116857142D01*
X107809523Y-116761904D01*
X107809523Y-115952380D01*
X108809523Y-116952380D02*
X108238095Y-116952380D01*
X108523809Y-116952380D02*
X108523809Y-115952380D01*
X108428571Y-116095238D01*
X108333333Y-116190476D01*
X108238095Y-116238095D01*
%TO.C,L2*%
X86833333Y-110522380D02*
X86357142Y-110522380D01*
X86357142Y-109522380D01*
X87119047Y-109617619D02*
X87166666Y-109570000D01*
X87261904Y-109522380D01*
X87500000Y-109522380D01*
X87595238Y-109570000D01*
X87642857Y-109617619D01*
X87690476Y-109712857D01*
X87690476Y-109808095D01*
X87642857Y-109950952D01*
X87071428Y-110522380D01*
X87690476Y-110522380D01*
%TO.C,C11*%
X92082142Y-120787142D02*
X92034523Y-120834761D01*
X91891666Y-120882380D01*
X91796428Y-120882380D01*
X91653571Y-120834761D01*
X91558333Y-120739523D01*
X91510714Y-120644285D01*
X91463095Y-120453809D01*
X91463095Y-120310952D01*
X91510714Y-120120476D01*
X91558333Y-120025238D01*
X91653571Y-119930000D01*
X91796428Y-119882380D01*
X91891666Y-119882380D01*
X92034523Y-119930000D01*
X92082142Y-119977619D01*
X93034523Y-120882380D02*
X92463095Y-120882380D01*
X92748809Y-120882380D02*
X92748809Y-119882380D01*
X92653571Y-120025238D01*
X92558333Y-120120476D01*
X92463095Y-120168095D01*
X93986904Y-120882380D02*
X93415476Y-120882380D01*
X93701190Y-120882380D02*
X93701190Y-119882380D01*
X93605952Y-120025238D01*
X93510714Y-120120476D01*
X93415476Y-120168095D01*
%TO.C,J6*%
X115347380Y-104833333D02*
X116061666Y-104833333D01*
X116204523Y-104880952D01*
X116299761Y-104976190D01*
X116347380Y-105119047D01*
X116347380Y-105214285D01*
X115347380Y-103928571D02*
X115347380Y-104119047D01*
X115395000Y-104214285D01*
X115442619Y-104261904D01*
X115585476Y-104357142D01*
X115775952Y-104404761D01*
X116156904Y-104404761D01*
X116252142Y-104357142D01*
X116299761Y-104309523D01*
X116347380Y-104214285D01*
X116347380Y-104023809D01*
X116299761Y-103928571D01*
X116252142Y-103880952D01*
X116156904Y-103833333D01*
X115918809Y-103833333D01*
X115823571Y-103880952D01*
X115775952Y-103928571D01*
X115728333Y-104023809D01*
X115728333Y-104214285D01*
X115775952Y-104309523D01*
X115823571Y-104357142D01*
X115918809Y-104404761D01*
%TO.C,C7*%
X112287142Y-118166666D02*
X112334761Y-118214285D01*
X112382380Y-118357142D01*
X112382380Y-118452380D01*
X112334761Y-118595238D01*
X112239523Y-118690476D01*
X112144285Y-118738095D01*
X111953809Y-118785714D01*
X111810952Y-118785714D01*
X111620476Y-118738095D01*
X111525238Y-118690476D01*
X111430000Y-118595238D01*
X111382380Y-118452380D01*
X111382380Y-118357142D01*
X111430000Y-118214285D01*
X111477619Y-118166666D01*
X111382380Y-117833333D02*
X111382380Y-117166666D01*
X112382380Y-117595238D01*
%TO.C,C5*%
X113927142Y-107891666D02*
X113974761Y-107939285D01*
X114022380Y-108082142D01*
X114022380Y-108177380D01*
X113974761Y-108320238D01*
X113879523Y-108415476D01*
X113784285Y-108463095D01*
X113593809Y-108510714D01*
X113450952Y-108510714D01*
X113260476Y-108463095D01*
X113165238Y-108415476D01*
X113070000Y-108320238D01*
X113022380Y-108177380D01*
X113022380Y-108082142D01*
X113070000Y-107939285D01*
X113117619Y-107891666D01*
X113022380Y-106986904D02*
X113022380Y-107463095D01*
X113498571Y-107510714D01*
X113450952Y-107463095D01*
X113403333Y-107367857D01*
X113403333Y-107129761D01*
X113450952Y-107034523D01*
X113498571Y-106986904D01*
X113593809Y-106939285D01*
X113831904Y-106939285D01*
X113927142Y-106986904D01*
X113974761Y-107034523D01*
X114022380Y-107129761D01*
X114022380Y-107367857D01*
X113974761Y-107463095D01*
X113927142Y-107510714D01*
%TO.C,U3*%
X124502380Y-115261904D02*
X125311904Y-115261904D01*
X125407142Y-115214285D01*
X125454761Y-115166666D01*
X125502380Y-115071428D01*
X125502380Y-114880952D01*
X125454761Y-114785714D01*
X125407142Y-114738095D01*
X125311904Y-114690476D01*
X124502380Y-114690476D01*
X124502380Y-114309523D02*
X124502380Y-113690476D01*
X124883333Y-114023809D01*
X124883333Y-113880952D01*
X124930952Y-113785714D01*
X124978571Y-113738095D01*
X125073809Y-113690476D01*
X125311904Y-113690476D01*
X125407142Y-113738095D01*
X125454761Y-113785714D01*
X125502380Y-113880952D01*
X125502380Y-114166666D01*
X125454761Y-114261904D01*
X125407142Y-114309523D01*
%TO.C,C8*%
X115287142Y-118166666D02*
X115334761Y-118214285D01*
X115382380Y-118357142D01*
X115382380Y-118452380D01*
X115334761Y-118595238D01*
X115239523Y-118690476D01*
X115144285Y-118738095D01*
X114953809Y-118785714D01*
X114810952Y-118785714D01*
X114620476Y-118738095D01*
X114525238Y-118690476D01*
X114430000Y-118595238D01*
X114382380Y-118452380D01*
X114382380Y-118357142D01*
X114430000Y-118214285D01*
X114477619Y-118166666D01*
X114810952Y-117595238D02*
X114763333Y-117690476D01*
X114715714Y-117738095D01*
X114620476Y-117785714D01*
X114572857Y-117785714D01*
X114477619Y-117738095D01*
X114430000Y-117690476D01*
X114382380Y-117595238D01*
X114382380Y-117404761D01*
X114430000Y-117309523D01*
X114477619Y-117261904D01*
X114572857Y-117214285D01*
X114620476Y-117214285D01*
X114715714Y-117261904D01*
X114763333Y-117309523D01*
X114810952Y-117404761D01*
X114810952Y-117595238D01*
X114858571Y-117690476D01*
X114906190Y-117738095D01*
X115001428Y-117785714D01*
X115191904Y-117785714D01*
X115287142Y-117738095D01*
X115334761Y-117690476D01*
X115382380Y-117595238D01*
X115382380Y-117404761D01*
X115334761Y-117309523D01*
X115287142Y-117261904D01*
X115191904Y-117214285D01*
X115001428Y-117214285D01*
X114906190Y-117261904D01*
X114858571Y-117309523D01*
X114810952Y-117404761D01*
%TO.C,L1*%
X86833333Y-113522380D02*
X86357142Y-113522380D01*
X86357142Y-112522380D01*
X87690476Y-113522380D02*
X87119047Y-113522380D01*
X87404761Y-113522380D02*
X87404761Y-112522380D01*
X87309523Y-112665238D01*
X87214285Y-112760476D01*
X87119047Y-112808095D01*
D11*
%TO.C,C14*%
X96359420Y-119510000D02*
X96640580Y-119510000D01*
X96359420Y-118490000D02*
X96640580Y-118490000D01*
%TO.C,C12*%
X121510000Y-119584420D02*
X121510000Y-119865580D01*
X120490000Y-119584420D02*
X120490000Y-119865580D01*
%TO.C,C4*%
X117359420Y-118010000D02*
X117640580Y-118010000D01*
X117359420Y-116990000D02*
X117640580Y-116990000D01*
%TO.C,C6*%
X118785000Y-108140580D02*
X118785000Y-107859420D01*
X117765000Y-108140580D02*
X117765000Y-107859420D01*
%TO.C,R9*%
X117912258Y-115022500D02*
X117437742Y-115022500D01*
X117912258Y-113977500D02*
X117437742Y-113977500D01*
%TO.C,R8*%
X115562742Y-110922500D02*
X116037258Y-110922500D01*
X115562742Y-109877500D02*
X116037258Y-109877500D01*
%TO.C,R1*%
X86587742Y-117922500D02*
X87062258Y-117922500D01*
X86587742Y-116877500D02*
X87062258Y-116877500D01*
%TO.C,J3*%
X84795000Y-102870000D02*
X87395000Y-102870000D01*
X87395000Y-105530000D02*
X87395000Y-102870000D01*
X83525000Y-105530000D02*
X82195000Y-105530000D01*
X82195000Y-105530000D02*
X82195000Y-104200000D01*
X84795000Y-105530000D02*
X87395000Y-105530000D01*
X84795000Y-105530000D02*
X84795000Y-102870000D01*
%TO.C,C10*%
X103134420Y-108490000D02*
X103415580Y-108490000D01*
X103134420Y-109510000D02*
X103415580Y-109510000D01*
%TO.C,U2*%
X92202500Y-108170000D02*
X90512500Y-108170000D01*
X94962500Y-117750000D02*
X97722500Y-117750000D01*
X94962500Y-107330000D02*
X97722500Y-107330000D01*
X92202500Y-117750000D02*
X92202500Y-116910000D01*
X97722500Y-107330000D02*
X97722500Y-108170000D01*
X97722500Y-117750000D02*
X97722500Y-116910000D01*
X94962500Y-117750000D02*
X92202500Y-117750000D01*
X92202500Y-107330000D02*
X92202500Y-108170000D01*
X94962500Y-107330000D02*
X92202500Y-107330000D01*
%TO.C,C16*%
X121510000Y-108140580D02*
X121510000Y-107859420D01*
X120490000Y-108140580D02*
X120490000Y-107859420D01*
%TO.C,R6*%
X102762742Y-114977500D02*
X103237258Y-114977500D01*
X102762742Y-116022500D02*
X103237258Y-116022500D01*
%TO.C,R5*%
X102762742Y-111977500D02*
X103237258Y-111977500D01*
X102762742Y-113022500D02*
X103237258Y-113022500D01*
%TO.C,C13*%
X102859420Y-106510000D02*
X103140580Y-106510000D01*
X102859420Y-105490000D02*
X103140580Y-105490000D01*
%TO.C,Entrada*%
X80670000Y-111495000D02*
X80670000Y-114095000D01*
X83330000Y-111495000D02*
X83330000Y-114095000D01*
X80670000Y-114095000D02*
X83330000Y-114095000D01*
X80670000Y-111495000D02*
X83330000Y-111495000D01*
X80670000Y-108895000D02*
X82000000Y-108895000D01*
X80670000Y-110225000D02*
X80670000Y-108895000D01*
%TO.C,C15*%
X123215000Y-107915580D02*
X123215000Y-107634420D01*
X124235000Y-107915580D02*
X124235000Y-107634420D01*
%TO.C,J5*%
X109995000Y-104670000D02*
X112595000Y-104670000D01*
X108725000Y-107330000D02*
X107395000Y-107330000D01*
X109995000Y-107330000D02*
X109995000Y-104670000D01*
X112595000Y-107330000D02*
X112595000Y-104670000D01*
X107395000Y-107330000D02*
X107395000Y-106000000D01*
X109995000Y-107330000D02*
X112595000Y-107330000D01*
%TO.C,C2*%
X111584420Y-110510000D02*
X111865580Y-110510000D01*
X111584420Y-109490000D02*
X111865580Y-109490000D01*
%TO.C,R3*%
X90562258Y-105477500D02*
X90087742Y-105477500D01*
X90562258Y-106522500D02*
X90087742Y-106522500D01*
%TO.C,R7*%
X107762742Y-109477500D02*
X108237258Y-109477500D01*
X107762742Y-110522500D02*
X108237258Y-110522500D01*
%TO.C,R2*%
X86737742Y-108077500D02*
X87212258Y-108077500D01*
X86737742Y-109122500D02*
X87212258Y-109122500D01*
%TO.C,+/G/-*%
X95745000Y-105830000D02*
X100885000Y-105830000D01*
X93145000Y-105830000D02*
X93145000Y-104500000D01*
X95745000Y-105830000D02*
X95745000Y-103170000D01*
X94475000Y-105830000D02*
X93145000Y-105830000D01*
X95745000Y-103170000D02*
X100885000Y-103170000D01*
X100885000Y-105830000D02*
X100885000Y-103170000D01*
%TO.C,C3*%
X114490000Y-113140580D02*
X114490000Y-112859420D01*
X115510000Y-113140580D02*
X115510000Y-112859420D01*
%TO.C,RV1*%
X126580000Y-115740000D02*
X126580000Y-117020000D01*
X126580000Y-112360000D02*
X126580000Y-112360000D01*
X131420000Y-114240000D02*
X131420000Y-114760000D01*
X131420000Y-116540000D02*
X131420000Y-117020000D01*
X126580000Y-111980000D02*
X126580000Y-113260000D01*
X126580000Y-112360000D02*
X126580000Y-113260000D01*
X126580000Y-117020000D02*
X131420000Y-117020000D01*
X126580000Y-112360000D02*
X126580000Y-113260000D01*
X126580000Y-111980000D02*
X131420000Y-111980000D01*
X131420000Y-111980000D02*
X131420000Y-112460000D01*
%TO.C,R4*%
X107237258Y-117977500D02*
X106762742Y-117977500D01*
X107237258Y-119022500D02*
X106762742Y-119022500D01*
%TO.C,C9*%
X124285000Y-119369420D02*
X124285000Y-119650580D01*
X123265000Y-119369420D02*
X123265000Y-119650580D01*
%TO.C,J4*%
X84730000Y-118670000D02*
X84730000Y-121330000D01*
X87330000Y-118670000D02*
X87330000Y-120000000D01*
X84730000Y-121330000D02*
X82130000Y-121330000D01*
X82130000Y-118670000D02*
X82130000Y-121330000D01*
X84730000Y-118670000D02*
X82130000Y-118670000D01*
X86000000Y-118670000D02*
X87330000Y-118670000D01*
%TO.C,J8*%
X130870000Y-120330000D02*
X130870000Y-117670000D01*
X128270000Y-117670000D02*
X130870000Y-117670000D01*
X125670000Y-120330000D02*
X125670000Y-119000000D01*
X128270000Y-120330000D02*
X130870000Y-120330000D01*
X127000000Y-120330000D02*
X125670000Y-120330000D01*
X128270000Y-120330000D02*
X128270000Y-117670000D01*
%TO.C,R10*%
X127262742Y-108477500D02*
X127737258Y-108477500D01*
X127262742Y-109522500D02*
X127737258Y-109522500D01*
%TO.C,C1*%
X103140580Y-119010000D02*
X102859420Y-119010000D01*
X103140580Y-117990000D02*
X102859420Y-117990000D01*
D10*
%TO.C,U1*%
X111625000Y-115125000D02*
X111625000Y-114900000D01*
X108375000Y-115125000D02*
X111625000Y-115125000D01*
X108375000Y-111875000D02*
X108375000Y-112000000D01*
X108375000Y-115125000D02*
X108375000Y-114900000D01*
X111625000Y-111875000D02*
X111625000Y-112100000D01*
X108375000Y-112000000D02*
X107300000Y-112000000D01*
X108375000Y-111875000D02*
X111625000Y-111875000D01*
D11*
%TO.C,L2*%
X86837221Y-112010000D02*
X87162779Y-112010000D01*
X86837221Y-110990000D02*
X87162779Y-110990000D01*
%TO.C,C11*%
X92865580Y-118490000D02*
X92584420Y-118490000D01*
X92865580Y-119510000D02*
X92584420Y-119510000D01*
%TO.C,J6*%
X119495000Y-105830000D02*
X122095000Y-105830000D01*
X119495000Y-105830000D02*
X119495000Y-103170000D01*
X118225000Y-105830000D02*
X116895000Y-105830000D01*
X122095000Y-105830000D02*
X122095000Y-103170000D01*
X116895000Y-105830000D02*
X116895000Y-104500000D01*
X119495000Y-103170000D02*
X122095000Y-103170000D01*
%TO.C,C7*%
X111010000Y-117859420D02*
X111010000Y-118140580D01*
X109990000Y-117859420D02*
X109990000Y-118140580D01*
%TO.C,C5*%
X115510000Y-107865580D02*
X115510000Y-107584420D01*
X114490000Y-107865580D02*
X114490000Y-107584420D01*
D10*
%TO.C,U3*%
X120875000Y-116125000D02*
X121100000Y-116125000D01*
X124125000Y-116125000D02*
X123900000Y-116125000D01*
X120875000Y-112875000D02*
X121100000Y-112875000D01*
X124000000Y-112875000D02*
X124000000Y-111800000D01*
X124125000Y-112875000D02*
X124000000Y-112875000D01*
X124125000Y-112875000D02*
X124125000Y-116125000D01*
X120875000Y-112875000D02*
X120875000Y-116125000D01*
D11*
%TO.C,C8*%
X112990000Y-117859420D02*
X112990000Y-118140580D01*
X114010000Y-117859420D02*
X114010000Y-118140580D01*
%TO.C,L1*%
X86837221Y-115010000D02*
X87162779Y-115010000D01*
X86837221Y-113990000D02*
X87162779Y-113990000D01*
%TD*%
M02*
