%TF.GenerationSoftware,KiCad,Pcbnew,(6.0.2)*%
%TF.CreationDate,2022-05-27T23:56:07+02:00*%
%TF.ProjectId,EEC_v0,4545435f-7630-42e6-9b69-6361645f7063,rev?*%
%TF.SameCoordinates,Original*%
%TF.FileFunction,Soldermask,Top*%
%TF.FilePolarity,Negative*%
%FSLAX46Y46*%
G04 Gerber Fmt 4.6, Leading zero omitted, Abs format (unit mm)*
G04 Created by KiCad (PCBNEW (6.0.2)) date 2022-05-27 23:56:07*
%MOMM*%
%LPD*%
G01*
G04 APERTURE LIST*
G04 Aperture macros list*
%AMRoundRect*
0 Rectangle with rounded corners*
0 $1 Rounding radius*
0 $2 $3 $4 $5 $6 $7 $8 $9 X,Y pos of 4 corners*
0 Add a 4 corners polygon primitive as box body*
4,1,4,$2,$3,$4,$5,$6,$7,$8,$9,$2,$3,0*
0 Add four circle primitives for the rounded corners*
1,1,$1+$1,$2,$3*
1,1,$1+$1,$4,$5*
1,1,$1+$1,$6,$7*
1,1,$1+$1,$8,$9*
0 Add four rect primitives between the rounded corners*
20,1,$1+$1,$2,$3,$4,$5,0*
20,1,$1+$1,$4,$5,$6,$7,0*
20,1,$1+$1,$6,$7,$8,$9,0*
20,1,$1+$1,$8,$9,$2,$3,0*%
G04 Aperture macros list end*
%ADD10RoundRect,0.225000X-0.225000X-0.250000X0.225000X-0.250000X0.225000X0.250000X-0.225000X0.250000X0*%
%ADD11RoundRect,0.225000X-0.250000X0.225000X-0.250000X-0.225000X0.250000X-0.225000X0.250000X0.225000X0*%
%ADD12RoundRect,0.225000X0.250000X-0.225000X0.250000X0.225000X-0.250000X0.225000X-0.250000X-0.225000X0*%
%ADD13RoundRect,0.200000X0.200000X0.275000X-0.200000X0.275000X-0.200000X-0.275000X0.200000X-0.275000X0*%
%ADD14RoundRect,0.200000X-0.200000X-0.275000X0.200000X-0.275000X0.200000X0.275000X-0.200000X0.275000X0*%
%ADD15R,1.700000X1.700000*%
%ADD16O,1.700000X1.700000*%
%ADD17RoundRect,0.150000X-0.837500X-0.150000X0.837500X-0.150000X0.837500X0.150000X-0.837500X0.150000X0*%
%ADD18R,2.000000X1.300000*%
%ADD19R,2.000000X2.000000*%
%ADD20RoundRect,0.225000X0.225000X0.250000X-0.225000X0.250000X-0.225000X-0.250000X0.225000X-0.250000X0*%
%ADD21R,1.100000X0.400000*%
%ADD22RoundRect,0.218750X-0.218750X-0.256250X0.218750X-0.256250X0.218750X0.256250X-0.218750X0.256250X0*%
%ADD23R,0.400000X1.100000*%
%ADD24C,1.700000*%
G04 APERTURE END LIST*
D10*
%TO.C,C14*%
X95725000Y-119000000D03*
X97275000Y-119000000D03*
%TD*%
D11*
%TO.C,C12*%
X121000000Y-118950000D03*
X121000000Y-120500000D03*
%TD*%
D10*
%TO.C,C4*%
X116725000Y-117500000D03*
X118275000Y-117500000D03*
%TD*%
D12*
%TO.C,C6*%
X118275000Y-108775000D03*
X118275000Y-107225000D03*
%TD*%
D13*
%TO.C,R9*%
X118500000Y-114500000D03*
X116850000Y-114500000D03*
%TD*%
D14*
%TO.C,R8*%
X114975000Y-110400000D03*
X116625000Y-110400000D03*
%TD*%
%TO.C,R1*%
X86000000Y-117400000D03*
X87650000Y-117400000D03*
%TD*%
D15*
%TO.C,J3*%
X83525000Y-104200000D03*
D16*
X86065000Y-104200000D03*
%TD*%
D10*
%TO.C,C10*%
X102500000Y-109000000D03*
X104050000Y-109000000D03*
%TD*%
D17*
%TO.C,U2*%
X91500000Y-108730000D03*
X91500000Y-110000000D03*
X91500000Y-111270000D03*
X91500000Y-112540000D03*
X91500000Y-113810000D03*
X91500000Y-115080000D03*
X91500000Y-116350000D03*
X98425000Y-116350000D03*
X98425000Y-115080000D03*
X98425000Y-113810000D03*
X98425000Y-112540000D03*
X98425000Y-111270000D03*
X98425000Y-110000000D03*
X98425000Y-108730000D03*
%TD*%
D12*
%TO.C,C16*%
X121000000Y-108775000D03*
X121000000Y-107225000D03*
%TD*%
D14*
%TO.C,R6*%
X102175000Y-115500000D03*
X103825000Y-115500000D03*
%TD*%
%TO.C,R5*%
X102175000Y-112500000D03*
X103825000Y-112500000D03*
%TD*%
D10*
%TO.C,C13*%
X102225000Y-106000000D03*
X103775000Y-106000000D03*
%TD*%
D15*
%TO.C,Entrada*%
X82000000Y-110225000D03*
D16*
X82000000Y-112765000D03*
%TD*%
D12*
%TO.C,C15*%
X123725000Y-108550000D03*
X123725000Y-107000000D03*
%TD*%
D15*
%TO.C,J5*%
X108725000Y-106000000D03*
D16*
X111265000Y-106000000D03*
%TD*%
D10*
%TO.C,C2*%
X110950000Y-110000000D03*
X112500000Y-110000000D03*
%TD*%
D13*
%TO.C,R3*%
X91150000Y-106000000D03*
X89500000Y-106000000D03*
%TD*%
D14*
%TO.C,R7*%
X107175000Y-110000000D03*
X108825000Y-110000000D03*
%TD*%
%TO.C,R2*%
X86150000Y-108600000D03*
X87800000Y-108600000D03*
%TD*%
D15*
%TO.C,+/G/-*%
X94475000Y-104500000D03*
D16*
X97015000Y-104500000D03*
X99555000Y-104500000D03*
%TD*%
D12*
%TO.C,C3*%
X115000000Y-113775000D03*
X115000000Y-112225000D03*
%TD*%
D18*
%TO.C,RV1*%
X131000000Y-113350000D03*
D19*
X127000000Y-114500000D03*
D18*
X131000000Y-115650000D03*
%TD*%
D13*
%TO.C,R4*%
X107825000Y-118500000D03*
X106175000Y-118500000D03*
%TD*%
D11*
%TO.C,C9*%
X123775000Y-118735000D03*
X123775000Y-120285000D03*
%TD*%
D15*
%TO.C,J4*%
X86000000Y-120000000D03*
D16*
X83460000Y-120000000D03*
%TD*%
D15*
%TO.C,J8*%
X127000000Y-119000000D03*
D16*
X129540000Y-119000000D03*
%TD*%
D14*
%TO.C,R10*%
X126675000Y-109000000D03*
X128325000Y-109000000D03*
%TD*%
D20*
%TO.C,C1*%
X103775000Y-118500000D03*
X102225000Y-118500000D03*
%TD*%
D21*
%TO.C,U1*%
X107850000Y-112525000D03*
X107850000Y-113175000D03*
X107850000Y-113825000D03*
X107850000Y-114475000D03*
X112150000Y-114475000D03*
X112150000Y-113825000D03*
X112150000Y-113175000D03*
X112150000Y-112525000D03*
%TD*%
D22*
%TO.C,L2*%
X86212500Y-111500000D03*
X87787500Y-111500000D03*
%TD*%
D20*
%TO.C,C11*%
X93500000Y-119000000D03*
X91950000Y-119000000D03*
%TD*%
D15*
%TO.C,J6*%
X118225000Y-104500000D03*
D16*
X120765000Y-104500000D03*
%TD*%
D11*
%TO.C,C7*%
X110500000Y-117225000D03*
X110500000Y-118775000D03*
%TD*%
D12*
%TO.C,C5*%
X115000000Y-108500000D03*
X115000000Y-106950000D03*
%TD*%
D23*
%TO.C,U3*%
X123475000Y-112350000D03*
X122825000Y-112350000D03*
X122175000Y-112350000D03*
X121525000Y-112350000D03*
X121525000Y-116650000D03*
X122175000Y-116650000D03*
X122825000Y-116650000D03*
X123475000Y-116650000D03*
%TD*%
D11*
%TO.C,C8*%
X113500000Y-117225000D03*
X113500000Y-118775000D03*
%TD*%
D22*
%TO.C,L1*%
X86212500Y-114500000D03*
X87787500Y-114500000D03*
%TD*%
D24*
%TO.C,Salida*%
X126000000Y-111000000D03*
X119000000Y-111000000D03*
%TD*%
M02*
