M48
; DRILL file {KiCad (6.0.2)} date Fri May 27 23:56:01 2022
; FORMAT={-:-/ absolute / metric / decimal}
; #@! TF.CreationDate,2022-05-27T23:56:01+02:00
; #@! TF.GenerationSoftware,Kicad,Pcbnew,(6.0.2)
; #@! TF.FileFunction,Plated,1,2,PTH
FMAT,2
METRIC
; #@! TA.AperFunction,Plated,PTH,ViaDrill
T1C0.400
; #@! TA.AperFunction,Plated,PTH,ComponentDrill
T2C1.000
%
G90
G05
T1
X89.5Y-120.0
X93.5Y-117.0
X94.5Y-113.0
X99.0Y-120.0
X100.5Y-109.0
X102.225Y-107.275
X103.775Y-104.225
X105.5Y-114.5
X107.825Y-120.175
X109.137Y-115.862
X110.5Y-120.5
X111.5Y-108.0
X111.8Y-111.4
X113.5Y-106.0
X114.5Y-120.5
X115.5Y-104.5
X115.6Y-109.6
X119.5Y-117.0
X119.5Y-120.5
X121.5Y-110.5
X122.5Y-106.0
X122.55Y-118.95
X124.6Y-114.0
X130.0Y-109.0
X130.0Y-112.0
T2
X82.0Y-110.225
X82.0Y-112.765
X83.46Y-120.0
X83.525Y-104.2
X86.0Y-120.0
X86.065Y-104.2
X94.475Y-104.5
X97.015Y-104.5
X99.555Y-104.5
X108.725Y-106.0
X111.265Y-106.0
X118.225Y-104.5
X120.765Y-104.5
X127.0Y-119.0
X129.54Y-119.0
T0
M30
